<svg width="60" height="40" viewBox="0 0 60 40" fill="none" xmlns="http://www.w3.org/2000/svg">
  <rect width="60" height="40" rx="4" fill="white"/>
  <path d="M50 10H10V30H50V10Z" fill="#FF6000"/>
  <circle cx="50" cy="20" r="8" fill="#FFA348"/>
  <path d="M12 23V17H14C15.5 17 16.5 18 16.5 19.5C16.5 21 15.5 22 14 22H13V23H12ZM13 21H14C14.8 21 15.5 20.5 15.5 19.5C15.5 18.5 14.8 18 14 18H13V21Z" fill="white"/>
  <path d="M17 23V17H18V23H17Z" fill="white"/>
  <path d="M19 21.5C19 20.5 19.5 20 20.5 19.5C19.5 19 19 18.5 19 17.5C19 16.5 19.8 16 21 16C22.2 16 23 16.5 23 17.5C23 18.5 22.5 19 21.5 19.5C22.5 20 23 20.5 23 21.5C23 22.5 22.2 23 21 23C19.8 23 19 22.5 19 21.5Z" fill="white"/>
  <path d="M24 20C24 18.3 25.1 17 26.5 17C27.3 17 28 17.3 28.5 17.8L27.8 18.5C27.5 18.2 27 18 26.5 18C25.7 18 25 18.7 25 20C25 21.3 25.7 22 26.5 22C27 22 27.5 21.8 27.8 21.5L28.5 22.2C28 22.7 27.3 23 26.5 23C25.1 23 24 21.7 24 20Z" fill="white"/>
</svg>