<svg width="60" height="40" viewBox="0 0 60 40" fill="none" xmlns="http://www.w3.org/2000/svg">
  <rect width="60" height="40" rx="4" fill="#E5E7EB"/>
  <path d="M25.8 28H22.4L24.5 13H27.9L25.8 28Z" fill="#9CA3AF"/>
  <path d="M36.8 13.4C36.1 13.1 35 12.8 33.6 12.8C30.2 12.8 27.8 14.6 27.8 17.2C27.8 19.1 29.5 20.1 30.8 20.7C32.1 21.3 32.6 21.7 32.6 22.3C32.6 23.1 31.6 23.5 30.7 23.5C29.3 23.5 28.5 23.3 27.3 22.8L26.8 22.6L26.3 25.8C27.2 26.2 28.8 26.6 30.5 26.6C34.1 26.6 36.5 24.8 36.5 22C36.5 20.4 35.6 19.2 33.6 18.3C32.4 17.7 31.7 17.3 31.7 16.7C31.7 16.1 32.4 15.5 33.7 15.5C34.9 15.5 35.8 15.7 36.5 16L36.8 16.1L37.3 13.1L36.8 13.4Z" fill="#9CA3AF"/>
  <path d="M43.4 13H40.8C40 13 39.4 13.2 39 14.1L34 28H37.6L38.4 25.5H42.8L43.3 28H46.4L43.4 13ZM39.3 22.8C39.5 22.2 40.6 19.1 40.6 19.1C40.6 19.1 40.9 18.1 41.1 17.5L41.4 19C41.4 19 42.1 22.2 42.3 22.8H39.3Z" fill="#9CA3AF"/>
  <path d="M19.1 13L15.6 22.6L15.2 20.8C14.5 18.4 12.2 15.8 9.6 14.5L12.8 28H16.4L22.7 13H19.1Z" fill="#9CA3AF"/>
  <path d="M12.3 13H7V13.2C11.1 14.3 14 16.8 15 19.3L14 14.2C13.8 13.3 13.2 13 12.3 13Z" fill="#D1D5DB"/>
</svg>