<svg width="60" height="40" viewBox="0 0 60 40" fill="none" xmlns="http://www.w3.org/2000/svg">
  <rect width="60" height="40" rx="4" fill="white"/>
  <rect x="8" y="8" width="16" height="24" rx="2" fill="#0E4C96"/>
  <rect x="22" y="8" width="16" height="24" rx="2" fill="#FFFFFF" stroke="#D9D9D9"/>
  <rect x="36" y="8" width="16" height="24" rx="2" fill="#E61C24"/>
  <path d="M11 22V26C11 27 11.5 28 13 28C14.5 28 15 27 15 26V16H13V26C13 26.5 12.8 27 12.5 27C12.2 27 12 26.5 12 26V22H11Z" fill="white"/>
  <path d="M27 22V26C27 27 27.5 28 29 28C30.5 28 31 27 31 26V16H29V26C29 26.5 28.8 27 28.5 27C28.2 27 28 26.5 28 26V22H27Z" fill="#0E4C96"/>
  <path d="M41 16H44C45.5 16 46 17 46 18V20C46 21 45.5 22 44 22H42.5V28H41V16ZM42.5 20H44C44.5 20 44.5 19.5 44.5 19C44.5 18.5 44.5 18 44 18H42.5V20Z" fill="white"/>
</svg>